<svg id="Guide_layer" data-name="Guide layer" xmlns="http://www.w3.org/2000/svg" xmlns:xlink="http://www.w3.org/1999/xlink" viewBox="0 0 291.46 229.47"><defs><style>.cls-1,.cls-11,.cls-13,.cls-15,.cls-3,.cls-5,.cls-8{fill:none;}.cls-2{fill:#1c3262;}.cls-3{stroke:#1c3262;stroke-width:4.36px;}.cls-11,.cls-3,.cls-5,.cls-8{stroke-miterlimit:10;}.cls-4{fill:#002d74;}.cls-11,.cls-5{stroke:#f6d44d;}.cls-5{stroke-width:6.86px;}.cls-6{fill:#fff;}.cls-7{fill:#f6d44d;}.cls-8{stroke:#fff;stroke-width:1.5px;}.cls-9{clip-path:url(#clip-path);}.cls-10{fill:url(#linear-gradient);}.cls-11{stroke-width:3px;}.cls-12,.cls-14{fill:#e1251b;}.cls-13,.cls-15{stroke:#e1251b;stroke-miterlimit:3.86;}.cls-13{stroke-width:0.48px;}.cls-14{fill-rule:evenodd;}.cls-15{stroke-width:0.46px;}</style><clipPath id="clip-path" transform="translate(0 0)"><path class="cls-1" d="M128,103.4h0Z"/></clipPath><linearGradient id="linear-gradient" x1="-363.2" y1="451.26" x2="-361.82" y2="451.26" gradientTransform="matrix(58.17, 0, 0, -58.17, 21255.8, 26353.84)" gradientUnits="userSpaceOnUse"><stop offset="0" stop-color="#fff"/><stop offset="1" stop-color="#1c1b1a"/></linearGradient></defs><polygon class="cls-2" points="32.12 136.03 27.51 134.76 30.67 121.85 31.07 122.59 32.12 136.03"/><rect class="cls-2" x="238.78" y="131.66" width="21.59" height="4.82"/><line class="cls-3" x1="237.57" y1="139.37" x2="240.74" y2="126.46"/><path class="cls-4" d="M257.39,114.74c0,61.47-50.13,111.31-112,111.31s-112-49.84-112-111.31S83.57,3.43,145.42,3.43s112,49.83,112,111.31" transform="translate(0 0)"/><path class="cls-5" d="M257.39,114.74c0,61.47-50.13,111.31-112,111.31s-112-49.84-112-111.31S83.57,3.43,145.42,3.43,257.39,53.26,257.39,114.74Z" transform="translate(0 0)"/><path class="cls-4" d="M241.88,116.64A96,96,0,0,1,212,186.34a97.38,97.38,0,0,1-139.84-5.67A96.45,96.45,0,0,1,59.2,162.28L59,162a95.62,95.62,0,0,1-11.34-45.31c0-53.3,43.47-96.52,97.1-96.52s97.1,43.22,97.1,96.52" transform="translate(0 0)"/><path class="cls-5" d="M241.88,116.64A96,96,0,0,1,212,186.34a97.38,97.38,0,0,1-139.84-5.67A96.45,96.45,0,0,1,59.2,162.28L59,162a95.62,95.62,0,0,1-11.34-45.31c0-53.3,43.47-96.52,97.1-96.52S241.88,63.34,241.88,116.64Z" transform="translate(0 0)"/><path class="cls-6" d="M105.43,51.54a3.59,3.59,0,0,1,.52,3,4.39,4.39,0,0,1-1.87,2.65L99.3,60.42a4.33,4.33,0,0,1-3.15.77,3.69,3.69,0,0,1-2.56-1.58l-5.5-8.08a3.54,3.54,0,0,1-.52-2.94A4.32,4.32,0,0,1,89.44,46l4.78-3.26a4.37,4.37,0,0,1,3.14-.77,3.48,3.48,0,0,1,2.57,1.55ZM102.5,54l-6-8.74L91,49.05l6,8.74Z" transform="translate(0 0)"/><path class="cls-6" d="M119.7,47.5c.42,1,0,1.71-1.1,2.21l-6.24,2.71q-3.63,1.57-5.06-1.71l-4.74-10.9a1.8,1.8,0,0,1,1-2.68,1.75,1.75,0,0,1,1.4,0,1.88,1.88,0,0,1,1,1l4.93,11.34,6.39-2.78a2,2,0,0,1,1.42-.1,1.54,1.54,0,0,1,1,.89" transform="translate(0 0)"/><path class="cls-6" d="M133.43,44.05c.23,1-.28,1.68-1.51,2l-6.64,1.46c-2.58.57-4.12-.31-4.64-2.64l-2.56-11.61a1.79,1.79,0,0,1,1.52-2.43A1.72,1.72,0,0,1,121,31a1.87,1.87,0,0,1,.79,1.21l2.67,12.07,6.81-1.5a1.9,1.9,0,0,1,1.4.17,1.55,1.55,0,0,1,.78,1.06" transform="translate(0 0)"/><path class="cls-6" d="M148.91,43.51a1.55,1.55,0,0,1-.51,1.23,2,2,0,0,1-1.36.48l-8.17.09a4.51,4.51,0,0,1-3.05-1.08,3.47,3.47,0,0,1-1.28-2.72l-.11-9.88a3.5,3.5,0,0,1,1.22-2.72,4.49,4.49,0,0,1,3-1.14l8.16-.09a2,2,0,0,1,1.39.44,1.63,1.63,0,0,1,.53,1.24,1.59,1.59,0,0,1-.51,1.24,1.91,1.91,0,0,1-1.37.48l-8.64.1,0,3.68,8.64-.09a2,2,0,0,1,1.39.45,1.58,1.58,0,0,1,.53,1.22c0,1.11-.62,1.67-1.88,1.69l-8.64.09,0,3.66,8.64-.07a2,2,0,0,1,1.37.46,1.58,1.58,0,0,1,.54,1.24" transform="translate(0 0)"/><path class="cls-6" d="M166,41.1l-.54,2.82a3.5,3.5,0,0,1-1.74,2.44,4.54,4.54,0,0,1-3.2.51l-5.69-1.1a4.47,4.47,0,0,1-2.75-1.66,3.57,3.57,0,0,1-.71-2.91l1.86-9.67A3.49,3.49,0,0,1,155,29.09a4.5,4.5,0,0,1,3.19-.51l8,1.54a2,2,0,0,1,1.25.73,1.59,1.59,0,0,1,.28,1.31,1.53,1.53,0,0,1-.75,1.11,2,2,0,0,1-1.43.2l-8.48-1.64-2,10.51,6.54,1.26.68-3.54-1.59-.31a2,2,0,0,1-1.25-.72,1.68,1.68,0,0,1,.46-2.41,1.94,1.94,0,0,1,1.44-.21l3.53.68a1.94,1.94,0,0,1,1.22.73,1.54,1.54,0,0,1,.31,1.3l-.86,4.51Z" transform="translate(0 0)"/><path class="cls-6" d="M171.78,48.8a1.45,1.45,0,0,1-1,1,2.94,2.94,0,0,1-3-1,1.48,1.48,0,0,1-.2-1.4L172.07,34a1.44,1.44,0,0,1,1-1A3,3,0,0,1,176,34a1.49,1.49,0,0,1,.26,1.44Z" transform="translate(0 0)"/><path class="cls-6" d="M192.6,45.3l-5.28,10.79a1.47,1.47,0,0,1-1,.85,2,2,0,0,1-1.37-.18,2.12,2.12,0,0,1-1-1,1.47,1.47,0,0,1,0-1.38l2.35-4.8-6-2.94-2.33,4.76a1.48,1.48,0,0,1-1.07.88,2.06,2.06,0,0,1-1.41-.18,2,2,0,0,1-1-1,1.56,1.56,0,0,1,.05-1.38L179.74,39A3.53,3.53,0,0,1,182,37.09a4.44,4.44,0,0,1,3.21.34l5.2,2.54a4.43,4.43,0,0,1,2.21,2.32,3.42,3.42,0,0,1,0,3m-4.86,1.24,1.61-3.3-6-2.94-1.61,3.31Z" transform="translate(0 0)"/><polygon class="cls-7" points="89.24 18.41 96.6 32.61 116.84 23.93 142.29 19.45 159.17 20.77 193.35 32.08 200.45 18.41 179.41 8.42 160.49 5 133.01 4.35 121.42 6.31 107.69 10.61 89.24 18.41"/><path class="cls-4" d="M106.94,21.92a2.39,2.39,0,0,1-.08,2.1,3.1,3.1,0,0,1-1.66,1.54l-5.35,2.26a1.4,1.4,0,0,1-1,.07,1.15,1.15,0,0,1-.69-.66,1.09,1.09,0,0,1,0-.95,1.39,1.39,0,0,1,.76-.68l5.64-2.39-.37-.87-4.09,1.73a3.15,3.15,0,0,1-2.29.13,2.47,2.47,0,0,1-1.53-1.41l-.17-.38a2.43,2.43,0,0,1,.09-2.07,3.17,3.17,0,0,1,1.66-1.56l5.35-2.26a1.41,1.41,0,0,1,1-.08,1.09,1.09,0,0,1,.67.64,1.13,1.13,0,0,1,0,1,1.45,1.45,0,0,1-.77.68l-5.63,2.38.38.91,4.07-1.72a3.15,3.15,0,0,1,2.27-.13,2.37,2.37,0,0,1,1.57,1.4Z" transform="translate(0 0)"/><path class="cls-4" d="M117.26,18.51a2.54,2.54,0,0,1-.26,2.12,3.09,3.09,0,0,1-1.81,1.42l-3.91,1.23a3.12,3.12,0,0,1-2.29-.12,2.56,2.56,0,0,1-1.41-1.6l-1.09-3.44a2.5,2.5,0,0,1,.25-2.11,3.09,3.09,0,0,1,1.8-1.41l3.91-1.23a3,3,0,0,1,2.29.12,2.45,2.45,0,0,1,1.43,1.57Zm-2.5,1.08-1.26-4L109,17l1.26,4Z" transform="translate(0 0)"/><path class="cls-4" d="M127.87,16.19a2.57,2.57,0,0,1-.47,2.09,3.05,3.05,0,0,1-1.94,1.23l-4,.86a3.1,3.1,0,0,1-2.26-.35,2.49,2.49,0,0,1-1.27-1.72l-1.07-5a1.12,1.12,0,0,1,.17-.94,1.63,1.63,0,0,1,1.93-.41,1.11,1.11,0,0,1,.55.78L120.63,18l4.65-1-1.13-5.32a1.16,1.16,0,0,1,.19-1,1.51,1.51,0,0,1,.89-.53,1.4,1.4,0,0,1,1,.14,1.08,1.08,0,0,1,.55.77Z" transform="translate(0 0)"/><path class="cls-4" d="M138.8,16.47a1.13,1.13,0,0,1-.28.92,1.37,1.37,0,0,1-.92.44l-5.77.63a3.19,3.19,0,0,1-2.23-.53,2.51,2.51,0,0,1-1.07-1.83l-.74-6.81a1.07,1.07,0,0,1,.28-.9A1.41,1.41,0,0,1,129,8a1.52,1.52,0,0,1,1,.21,1.13,1.13,0,0,1,.47.82l0,.45,2.36-.26a1.43,1.43,0,0,1,1,.22,1.1,1.1,0,0,1,.46.83,1.12,1.12,0,0,1-.27.91,1.46,1.46,0,0,1-1,.44l-2.36.25.47,4.27,6.09-.66a1.36,1.36,0,0,1,1,.23,1.09,1.09,0,0,1,.46.81" transform="translate(0 0)"/><path class="cls-4" d="M149.52,16.37a1.13,1.13,0,0,1-.37.88,1.38,1.38,0,0,1-1,.34,1.44,1.44,0,0,1-1-.32,1.13,1.13,0,0,1-.38-.89l0-5.49-4.76,0,0,5.49a1.14,1.14,0,0,1-.37.89,1.44,1.44,0,0,1-1,.33,1.39,1.39,0,0,1-1-.33,1.11,1.11,0,0,1-.37-.88l0-10a1.13,1.13,0,0,1,.36-.88,1.44,1.44,0,0,1,1-.32,1.49,1.49,0,0,1,1,.31,1.14,1.14,0,0,1,.38.87v2.1h4.43a3.13,3.13,0,0,1,2.15.78,2.44,2.44,0,0,1,.9,1.91Z" transform="translate(0 0)"/><path class="cls-4" d="M162.08,16A2.67,2.67,0,0,1,161,17.85a3.05,3.05,0,0,1-2.21.59l-5.91-.59a3,3,0,0,1-2-1,2.63,2.63,0,0,1-.67-2l.51-5.11a1.08,1.08,0,0,1,.45-.84,1.36,1.36,0,0,1,1-.24,1.48,1.48,0,0,1,1,.43,1.14,1.14,0,0,1,.29.92l-.54,5.41,1.92.19.54-5.41a1.15,1.15,0,0,1,.45-.84,1.33,1.33,0,0,1,1-.24,1.36,1.36,0,0,1,.93.43,1.16,1.16,0,0,1,.27.92l-.54,5.41,1.94.19.54-5.41a1.09,1.09,0,0,1,.47-.84,1.42,1.42,0,0,1,1-.23,1.4,1.4,0,0,1,.93.42,1.17,1.17,0,0,1,.28.92Z" transform="translate(0 0)"/><path class="cls-4" d="M172.39,19.63a1.1,1.1,0,0,1-.55.78,1.36,1.36,0,0,1-1,.14l-5.69-1.14a3.1,3.1,0,0,1-1.95-1.22,2.59,2.59,0,0,1-.47-2.08l.72-3.57a2.51,2.51,0,0,1,1.23-1.73,3.23,3.23,0,0,1,2.27-.35l3.95.8a3.26,3.26,0,0,1,2.05,1.23,2.65,2.65,0,0,1,.45,2.07L173,16.37a.82.82,0,0,1-.2.42,1.12,1.12,0,0,1-.36.32,1.33,1.33,0,0,1-.48.18,1.46,1.46,0,0,1-.51,0l-3.66-.74a1.38,1.38,0,0,1-.88-.52,1.08,1.08,0,0,1-.2-.92,1.06,1.06,0,0,1,.53-.75,1.4,1.4,0,0,1,1-.14l2.34.47.2-1-4.67-.94L165.3,17l6,1.21a1.35,1.35,0,0,1,.87.52,1.12,1.12,0,0,1,.21.92" transform="translate(0 0)"/><path class="cls-4" d="M183.1,21.26a2.39,2.39,0,0,1-1.4,1.56,3.13,3.13,0,0,1-2.26.13l-5.56-1.67a1.43,1.43,0,0,1-.84-.59,1.21,1.21,0,0,1,.5-1.68,1.45,1.45,0,0,1,1,0l5.86,1.75.28-.91-4.26-1.27a3.06,3.06,0,0,1-1.84-1.35,2.43,2.43,0,0,1-.29-2.07l.11-.39a2.45,2.45,0,0,1,1.39-1.55,3.23,3.23,0,0,1,2.27-.14l5.56,1.66a1.4,1.4,0,0,1,.84.6,1.18,1.18,0,0,1-.49,1.64,1.45,1.45,0,0,1-1,0l-5.86-1.75-.28.94,4.24,1.27a3.11,3.11,0,0,1,1.82,1.35,2.4,2.4,0,0,1,.33,2.07Z" transform="translate(0 0)"/><path class="cls-4" d="M192.66,26.59a1.14,1.14,0,0,1-.67.67,1.42,1.42,0,0,1-1,0l-5.39-2.16a3.17,3.17,0,0,1-1.71-1.52,2.54,2.54,0,0,1-.09-2.12l2.55-6.36a1.07,1.07,0,0,1,.67-.66,1.45,1.45,0,0,1,1,0,1.47,1.47,0,0,1,.8.67,1.1,1.1,0,0,1,0,.94l-.17.41,2.2.88a1.42,1.42,0,0,1,.79.68,1.19,1.19,0,0,1-.65,1.62,1.46,1.46,0,0,1-1-.06l-2.2-.88-1.59,4L191.86,25a1.41,1.41,0,0,1,.77.68,1.1,1.1,0,0,1,0,.94" transform="translate(0 0)"/><line class="cls-8" x1="109.74" y1="74.11" x2="96.73" y2="74.1"/><line class="cls-8" x1="125.31" y1="74.1" x2="110" y2="74.1"/><path class="cls-6" d="M111.57,74.17A1.57,1.57,0,1,1,110,72.6a1.57,1.57,0,0,1,1.57,1.57" transform="translate(0 0)"/><path class="cls-6" d="M162.41,74.49a1.57,1.57,0,1,1-1.57-1.57,1.58,1.58,0,0,1,1.57,1.57" transform="translate(0 0)"/><rect class="cls-6" x="169.85" y="73.55" width="6.49" height="2.16" rx="0.42"/><polyline class="cls-8" points="128.5 74.3 144.93 74.31 146.53 77 150.88 77 152.52 74.55 190.98 74.56"/><path class="cls-4" d="M98.43,74.1a1.71,1.71,0,1,1-1.7-1.7,1.7,1.7,0,0,1,1.7,1.7" transform="translate(0 0)"/><path class="cls-8" d="M98.43,74.1a1.71,1.71,0,1,1-1.7-1.7A1.7,1.7,0,0,1,98.43,74.1Z" transform="translate(0 0)"/><path class="cls-4" d="M128.48,74.2a1.7,1.7,0,1,1-1.7-1.71,1.7,1.7,0,0,1,1.7,1.71" transform="translate(0 0)"/><path class="cls-8" d="M128.48,74.2a1.7,1.7,0,1,1-1.7-1.71A1.7,1.7,0,0,1,128.48,74.2Z" transform="translate(0 0)"/><path class="cls-4" d="M193.6,74.56a1.7,1.7,0,1,1-1.7-1.7,1.71,1.71,0,0,1,1.7,1.7" transform="translate(0 0)"/><path class="cls-8" d="M193.6,74.56a1.7,1.7,0,1,1-1.7-1.7A1.71,1.71,0,0,1,193.6,74.56Z" transform="translate(0 0)"/><rect class="cls-6" x="115.57" y="65.61" width="6.49" height="2.16" rx="0.42"/><path class="cls-6" d="M154.4,66.54a1.57,1.57,0,1,1-1.55-1.6,1.57,1.57,0,0,1,1.55,1.6" transform="translate(0 0)"/><line class="cls-8" x1="151.99" y1="66.63" x2="102.65" y2="66.63"/><path class="cls-6" d="M104.22,66.63a1.57,1.57,0,1,1-1.57-1.57,1.58,1.58,0,0,1,1.57,1.57" transform="translate(0 0)"/><polyline class="cls-8" points="153.92 66.27 159.92 66.27 161.39 68.36 165.62 68.36 167.44 66.05 182.96 66.05"/><path class="cls-4" d="M174.54,66.16a1.7,1.7,0,1,1-1.7-1.7,1.7,1.7,0,0,1,1.7,1.7" transform="translate(0 0)"/><path class="cls-8" d="M174.54,66.16a1.7,1.7,0,1,1-1.7-1.7A1.7,1.7,0,0,1,174.54,66.16Z" transform="translate(0 0)"/><path class="cls-4" d="M184.21,66.3a1.71,1.71,0,1,1-1.71-1.7,1.71,1.71,0,0,1,1.71,1.7" transform="translate(0 0)"/><path class="cls-8" d="M184.21,66.3a1.71,1.71,0,1,1-1.71-1.7A1.71,1.71,0,0,1,184.21,66.3Z" transform="translate(0 0)"/><path class="cls-6" d="M152.79,58.53A1.53,1.53,0,1,1,151.27,57a1.54,1.54,0,0,1,1.52,1.58" transform="translate(0 0)"/><line class="cls-8" x1="151.8" y1="58.43" x2="169.41" y2="58.47"/><path class="cls-6" d="M170.84,57.37a.44.44,0,0,1,.41.46v1.43a.43.43,0,0,1-.41.45h-5.47a.43.43,0,0,1-.4-.45V57.81a.43.43,0,0,1,.41-.45Z" transform="translate(0 0)"/><polyline class="cls-8" points="150.2 58.7 145.25 58.7 143.37 56.85 139.34 56.85 137.09 59.14 120.82 59.1"/><path class="cls-4" d="M121.09,59a1.69,1.69,0,0,1-1.66,1.7,1.7,1.7,0,1,1,1.66-1.7" transform="translate(0 0)"/><path class="cls-8" d="M121.09,59a1.69,1.69,0,0,1-1.66,1.7,1.7,1.7,0,1,1,1.66-1.7Z" transform="translate(0 0)"/><path class="cls-4" d="M131.7,58.76a1.69,1.69,0,0,1-1.66,1.7,1.71,1.71,0,1,1,1.66-1.7" transform="translate(0 0)"/><path class="cls-8" d="M131.7,58.76a1.69,1.69,0,0,1-1.66,1.7,1.71,1.71,0,1,1,1.66-1.7Z" transform="translate(0 0)"/><path class="cls-7" d="M100.7,83.33v8.49H94.8V89H87c-.22,0-.35.08-.38.24a2.45,2.45,0,0,0,0,.48v7.58c0,.34.06.58.07.74s.13.23.35.23H100.7V104H84.93a2.82,2.82,0,0,1-1.76-.62,5.71,5.71,0,0,1-1.37-1.58,8.24,8.24,0,0,1-.89-2.12,8.76,8.76,0,0,1-.31-2.29V90a9,9,0,0,1,.31-2.31,8.38,8.38,0,0,1,.89-2.14A5.66,5.66,0,0,1,83.17,84a2.77,2.77,0,0,1,1.76-.63Z" transform="translate(0 0)"/><path class="cls-7" d="M124.81,83.33V97.41a8.91,8.91,0,0,1-.32,2.3,8.41,8.41,0,0,1-.87,2.14,5.37,5.37,0,0,1-1.36,1.58,2.84,2.84,0,0,1-1.79.62H105.15V98.34h13.28c.22,0,.35-.08.39-.23a2,2,0,0,0,.06-.49v-.84q0-.12-.21-.12h-9.6a2.61,2.61,0,0,1-1.76-.69,6.28,6.28,0,0,1-1.39-1.72,9.74,9.74,0,0,1-1.22-4.52v-6.4h6.23c0,2.19,0,3.82,0,4.9v1.66a1.2,1.2,0,0,0,.21.59c.14.23.28.34.42.34h7.32V83.33Z" transform="translate(0 0)"/><path class="cls-7" d="M143.22,83.16a3.41,3.41,0,0,1,1.67.4,3.55,3.55,0,0,1,1.22,1.09,5.12,5.12,0,0,1,.74,1.56,6.78,6.78,0,0,1,.25,1.88,11.6,11.6,0,0,1-.12,1.82,3.75,3.75,0,0,1-.69,1.55,2.32,2.32,0,0,1,1.39.85,5.88,5.88,0,0,1,.93,1.58,10.12,10.12,0,0,1,.54,1.76,7.22,7.22,0,0,1,.18,1.38,7.6,7.6,0,0,1-.3,2.06,8.31,8.31,0,0,1-.84,2,5,5,0,0,1-1.31,1.47,2.79,2.79,0,0,1-1.7.57H128v-20ZM143,95.92h-8v-.09h0V90.41h5.87c.4-.32.61-.61.61-.87a.89.89,0,0,0-.2-.55.58.58,0,0,0-.41-.24h-7.19v8.73H143a.42.42,0,0,0,.38-.22,1,1,0,0,0,.13-.53.83.83,0,0,0-.16-.41,3.09,3.09,0,0,0-.32-.4" transform="translate(0 0)"/><path class="cls-7" d="M158.06,96.09v1.69h14.18v5.51H152.13V89.74a8.46,8.46,0,0,1,.32-2.23,7.82,7.82,0,0,1,.89-2.06,5.43,5.43,0,0,1,1.37-1.52,2.86,2.86,0,0,1,1.76-.6h15.77v5.51H158.51c-.22,0-.33.07-.34.22s0,.39-.08.71v.78h9.79v5.54Z" transform="translate(0 0)"/><path class="cls-7" d="M176.27,83.33h17.19a2.62,2.62,0,0,1,1.7.63,5.64,5.64,0,0,1,1.3,1.58,8.08,8.08,0,0,1,.83,2.08,8.69,8.69,0,0,1,.29,2.12,7.81,7.81,0,0,1-.39,2.53,6.71,6.71,0,0,1-1.07,2,5.67,5.67,0,0,1-1.61,1.4,6,6,0,0,1-2,.72v.12l5.72,6.78h-8.4l-6.56-7.68v-5h8.19c.18,0,.3-.11.36-.32a2.09,2.09,0,0,0,.09-.56.84.84,0,0,0-.2-.54.55.55,0,0,0-.43-.24H181.9v6.71h-5.63Z" transform="translate(0 0)"/><g class="cls-9"><path class="cls-10" d="M128,103.4h0Z" transform="translate(0 0)"/></g><line class="cls-11" x1="127.97" y1="103.4" x2="208.29" y2="103.4"/><path class="cls-7" d="M88.88,125.46a4.09,4.09,0,0,1-1.49,3.16,5.15,5.15,0,0,1-3.49,1.29H74.47a2.35,2.35,0,0,1-1.56-.59,1.85,1.85,0,0,1-.67-1.46V111.58a1.85,1.85,0,0,1,.64-1.41,2.28,2.28,0,0,1,1.59-.58H83.9a5.23,5.23,0,0,1,3.52,1.28A4.08,4.08,0,0,1,88.88,114Zm-4.44-11.91H76.67V126h7.77Z" transform="translate(0 0)"/><path class="cls-7" d="M109.79,127.94a1.79,1.79,0,0,1-.61,1.42,2.28,2.28,0,0,1-1.59.55H98.11a5.15,5.15,0,0,1-3.53-1.3,4,4,0,0,1-1.46-3.17V114a4,4,0,0,1,1.46-3.14,5.19,5.19,0,0,1,3.53-1.29h9.48a2.32,2.32,0,0,1,1.6.53,2,2,0,0,1,0,2.88,2.24,2.24,0,0,1-1.6.55h-10v4.28h10a2.28,2.28,0,0,1,1.6.54,1.83,1.83,0,0,1,.6,1.42c0,1.29-.73,1.94-2.2,1.94h-10v4.25l10,0a2.24,2.24,0,0,1,1.59.56,1.84,1.84,0,0,1,.61,1.43" transform="translate(0 0)"/><path class="cls-7" d="M130.68,119.72a1.84,1.84,0,0,1-.6,1.43,2.33,2.33,0,0,1-1.61.55h-10v6a2,2,0,0,1-2.21,2.23,2,2,0,0,1-2.23-2.27V114a4.05,4.05,0,0,1,1.46-3.14,5.21,5.21,0,0,1,3.53-1.29h9.48a2.37,2.37,0,0,1,1.61.53,2,2,0,0,1,0,2.88,2.28,2.28,0,0,1-1.61.55h-10v4.25h10a2.32,2.32,0,0,1,1.61.54,1.87,1.87,0,0,1,.6,1.44" transform="translate(0 0)"/><path class="cls-7" d="M151.56,127.94a1.8,1.8,0,0,1-.62,1.42,2.27,2.27,0,0,1-1.58.55h-9.49a5.17,5.17,0,0,1-3.53-1.3,4,4,0,0,1-1.46-3.17V114a4.05,4.05,0,0,1,1.46-3.14,5.21,5.21,0,0,1,3.53-1.29h9.49a2.34,2.34,0,0,1,1.6.53,2,2,0,0,1,0,2.88,2.25,2.25,0,0,1-1.6.55h-10v4.28h10a2.3,2.3,0,0,1,1.6.54,1.83,1.83,0,0,1,.6,1.42c0,1.29-.74,1.94-2.2,1.94h-10v4.25l10,0a2.23,2.23,0,0,1,1.58.56,1.85,1.85,0,0,1,.62,1.43" transform="translate(0 0)"/><path class="cls-7" d="M172.44,127.88a1.88,1.88,0,0,1-.61,1.45,2.21,2.21,0,0,1-1.59.58,2.33,2.33,0,0,1-1.62-.56,1.89,1.89,0,0,1-.62-1.47V113.57h-7.8v14.31a1.88,1.88,0,0,1-.61,1.47,2.33,2.33,0,0,1-1.62.56,2.3,2.3,0,0,1-1.61-.56,1.94,1.94,0,0,1-.59-1.47V114.05a4.1,4.1,0,0,1,1.42-3.17,5.07,5.07,0,0,1,3.53-1.32h6.74a5,5,0,0,1,3.52,1.32,4.07,4.07,0,0,1,1.46,3.17Z" transform="translate(0 0)"/><path class="cls-7" d="M214.2,127.94a1.79,1.79,0,0,1-.61,1.42,2.28,2.28,0,0,1-1.59.55h-9.48a5.17,5.17,0,0,1-3.53-1.3,4,4,0,0,1-1.46-3.17V114a4.05,4.05,0,0,1,1.46-3.14,5.21,5.21,0,0,1,3.53-1.29H212a2.37,2.37,0,0,1,1.61.53,2.05,2.05,0,0,1,0,2.88,2.28,2.28,0,0,1-1.61.55H202v4.28h10a2.32,2.32,0,0,1,1.61.54,1.86,1.86,0,0,1,.59,1.42c0,1.29-.73,1.94-2.2,1.94H202v4.25l10,0a2.24,2.24,0,0,1,1.59.56,1.84,1.84,0,0,1,.61,1.43" transform="translate(0 0)"/><path class="cls-7" d="M193.27,125.75a3.94,3.94,0,0,1-1.47,3,5,5,0,0,1-3.51,1.29h-9.56a2.29,2.29,0,0,1-1.61-.56,1.91,1.91,0,0,1-.6-1.47,1.84,1.84,0,0,1,.6-1.39,2.29,2.29,0,0,1,1.61-.56h10.08v-4.24h-7.35a5.07,5.07,0,0,1-3.61-1.32,4.13,4.13,0,0,1-1.33-3.18v-3.15A4.31,4.31,0,0,1,178,110.9a5.08,5.08,0,0,1,3.55-1.33h9.56a2.29,2.29,0,0,1,1.59.56,1.89,1.89,0,0,1,.62,1.45,1.84,1.84,0,0,1-.62,1.41,2.29,2.29,0,0,1-1.59.56H181v4.27h7.28a5.22,5.22,0,0,1,3.54,1.29,4.06,4.06,0,0,1,1.47,3.17Z" transform="translate(0 0)"/><path class="cls-4" d="M13.76,96c-.56,0-.59.64-.56,1.21l.09,2a76.92,76.92,0,0,1-1.36,19.07,101.55,101.55,0,0,1-4,14.15A60.07,60.07,0,0,1,3.88,140c-1.24,2-3.5,5.21-3.78,5.54-.77.92,3.08,1.16,4.44,1.65,3.55,1.35,6,1.44,9.2,3.52.58.37.31.1.06.75-1.22,3.09-2.4,4.2-2.25,6.73l.1,1.69c.07,1.14,2.46,4.26,4.36,5a27.74,27.74,0,0,0,2.84.67,25.25,25.25,0,0,0,4,.09l4.6,0a12.52,12.52,0,0,0,3.61-.55l1.61-.39a21.86,21.86,0,0,1,4.51-.36s4.6-.31,4.95-.3l3.65.21c1.8.11,4.38,1.32,4.76,1.36a1.43,1.43,0,0,0,1.52-1.27l.17-1.1a11.59,11.59,0,0,0-.16-1.63c0-.28-.42-2.35-.42-2.35a7.57,7.57,0,0,1-.35-1.83c0-.27-.22-2.08-.22-2.08,0-.28-.34-7.79-.34-7.79,0-.28.22-10.69.22-10.69,0-1.36.18-3.8.24-4.07,0,0,.56-3.25,1-4.59a51.33,51.33,0,0,1,1.79-4.9c1.24-3,1.74-4.59,2.78-7.65a83.63,83.63,0,0,1,4.4-11.35,31.63,31.63,0,0,0,2.18-4.44c.22-.64-.29-.83-1-.84a2.43,2.43,0,0,0-1.35.34,32.55,32.55,0,0,1-3.16,1.49c-3.08,1.4-4.94,2.06-8.13,3.21-3.48,1.25-4.81,1.7-8.46,2.77-1.39.41-3.53.76-5.17,1.11H36l0-2.08c0-.28-.21-2.61-.21-2.61-.08-1-.81-1.52-1.65-2.12a26.22,26.22,0,0,0-4.62-2.7C26,96.66,19.39,95.65,16.21,95.85Z" transform="translate(0 0)"/><path class="cls-12" d="M14.81,97.85c-.1.21.46,3.8.46,3.8.53,3.74-.62,13.06-1.31,16.77-.37,2-1.2,5.32-1.64,7.15a18,18,0,0,1-1,3.63c-.61,1.36-.66,2.23-1.23,3.52A63.2,63.2,0,0,1,6,140.56a47.21,47.21,0,0,1-3,4.36c1.26.6,1.2.32,2.75.76,0,0,3.37.76,5.05,1.27,1.07.32,1.71.77,2.76,1.14a6.09,6.09,0,0,1,1.83,1.13,25.86,25.86,0,0,1,1-2.84c.93-1.73,2.16-2.26,2.2-4.28a2.69,2.69,0,0,0-.3-1.5c-.65-.76-.31-.4-1.21-.84A7.27,7.27,0,0,0,15,139s.7-1.34,1.55-3.08a30.73,30.73,0,0,0,1.44-4A39.92,39.92,0,0,0,19.35,126c.12-.6.84-7.09.84-7.09a45,45,0,0,0,.53-6h.81l1.29-3.35c1.12-1.61,2.95-1.82,3.71-2.23,4-2.14,2.46-.9,6.56-2.84l1.24-.92c-2-2.75-9-5-10-5.23a39.73,39.73,0,0,0-7.44-.56Z" transform="translate(0 0)"/><path class="cls-13" d="M14.81,97.85c-.1.21.46,3.8.46,3.8.53,3.74-.62,13.06-1.31,16.77-.37,2-1.2,5.32-1.64,7.15a18,18,0,0,1-1,3.63c-.61,1.36-.66,2.23-1.23,3.52A63.2,63.2,0,0,1,6,140.56a47.21,47.21,0,0,1-3,4.36c1.26.6,1.2.32,2.75.76,0,0,3.37.76,5.05,1.27,1.07.32,1.71.77,2.76,1.14a6.09,6.09,0,0,1,1.83,1.13,25.86,25.86,0,0,1,1-2.84c.93-1.73,2.16-2.26,2.2-4.28a2.69,2.69,0,0,0-.3-1.5c-.65-.76-.31-.4-1.21-.84A7.27,7.27,0,0,0,15,139s.7-1.34,1.55-3.08a30.73,30.73,0,0,0,1.44-4A39.92,39.92,0,0,0,19.35,126c.12-.6.84-7.09.84-7.09a45,45,0,0,0,.53-6h.81l1.29-3.35c1.12-1.61,2.95-1.82,3.71-2.23,4-2.14,2.46-.9,6.56-2.84l1.24-.92c-2-2.75-9-5-10-5.23a39.73,39.73,0,0,0-7.44-.56Z" transform="translate(0 0)"/><path class="cls-14" d="M60,102.2a13.87,13.87,0,0,1-2,1.06c-1,.47-2,.92-2.94,1.37a46.26,46.26,0,0,1-4.41,1.72c-1.48.5-3,1-4.45,1.46-1.25.42-2.52.78-3.81,1.1-2.74.69-5.52,1.27-8.29,1.82-1.54.31-3.09.6-4.64.87s-3.39.47-5.08.76c-.28,0-.56.11-.84.16s-.23,0-.27.21,0,.26-.06.39c-.08.5-.17,1-.24,1.5a22.33,22.33,0,0,0-.22,2.71,7.1,7.1,0,0,0,.24,2.34,2.39,2.39,0,0,0,1.61,1.5,10.54,10.54,0,0,0,3.7.49c1.38,0,2.76.09,4.13.08.71,0,1.42,0,2.13-.09.33,0,.68-.11,1-.11,0,0,.1,0,.13,0s0,0,.05,0c-.08,1-.14,2.09-.32,3.13-.29,1.64-.74,3.26-1.16,4.87s-.83,3.05-1.3,4.56a22.21,22.21,0,0,0-.8,2.9c-.14.82-.25,1.64-.34,2.46a47,47,0,0,0-.38,6c0,.81.12,1.6.16,2.4,0,.05,0,.15,0,.19s-.28.19-.42.25l-.8.34a13,13,0,0,1-3.81.8c-1.13.08-2.27.09-3.41.07a14.36,14.36,0,0,1-1.85-.06c-.52-.09-1-.28-1.56-.41a5.7,5.7,0,0,1-1.35-.41,1.8,1.8,0,0,1-.46-.29,41.13,41.13,0,0,0-2.27,4c-.38.79-.76,1.59-1.13,2.38a7,7,0,0,0-.7,2.22,4.86,4.86,0,0,0,1.3,3.9A7,7,0,0,0,18.29,163a44,44,0,0,0,6.36.55,31.07,31.07,0,0,0,5.81-.39c.95-.16,1.87-.52,2.83-.67a39.68,39.68,0,0,1,4.58-.71c.66-.06,1.31-.09,2-.09a52,52,0,0,1,7.59.32,3.79,3.79,0,0,1,.89.17,3.75,3.75,0,0,0,0-.58,2.89,2.89,0,0,0-.4-.9,13.59,13.59,0,0,0-.76-1.26c-.47-.69-1-1.32-1.54-2s-.94-1.32-1.46-1.93a7.83,7.83,0,0,1-1.08-1.42,4.24,4.24,0,0,1,0-3.19c.06-.18.32-.88.55-.76s.21.3.27.39l.27.42,1.08,1.62a11.69,11.69,0,0,0,1.86,2.54c1,.9,1.08-1.11,1.11-1.73,0-1.18,0-2.37,0-3.55-.06-2.39-.1-4.78.05-7.17.07-1.19.26-2.36.32-3.56l0-.34c-.42.59-.61,1.33-1.07,1.89-.21.25-.44.5-.67.74s-.8.92-1,.87-.45-.5-.57-.63L45,141.3c-.17-.18-.26-.23-.18-.49a17.3,17.3,0,0,1,1-2.18c.42-.82.83-1.65,1.22-2.48a35,35,0,0,0,1.82-4.75c.65-2.17,1.24-4.39,2.09-6.5.75-1.88,1.56-3.74,2.32-5.61a36.39,36.39,0,0,0,1.37-4.05c.13-.44.3-.87.39-1.32a9.23,9.23,0,0,1,.3-1.26,1.4,1.4,0,0,1,.26-.46c-1.62,2-3.12,4.06-4.9,5.91-1.1,1.14-2,2.42-3.19,3.48q-.93.84-1.92,1.62c-.34.27-.48.46-.91.39a5.69,5.69,0,0,1-2.05-.85,86.18,86.18,0,0,0,10.59-11.27c.58-.71,1.11-1.45,1.69-2.16.41-.5.84-1,1.23-1.5.89-1.17,1.65-2.44,2.47-3.66l1.33-2" transform="translate(0 0)"/><path class="cls-4" d="M55,37.21c-3.79-.74-9.42.37-12.36,3.08-1.29,1.18-2.39,4-3.22,7.86-.26,1.24-1.92-2-5-3.18l-3.22-1.21c-1.18-.44-4.91-.83-4.93-.07,0,0-.2,5.39-.24,8.17l-.3,2.72-.57,4.14c-.41,2.91-2.54,8.17-3.39,11-1.4,4.61-4.6,9.76-6.15,13.6-.84,2.1-1.28,3.86-2.05,6a11,11,0,0,0-.8,3.51c0,.52,6.62-.17,7.13-.16a52.3,52.3,0,0,1,7.38,1.14c3.47,1,6,2.69,9.21,4.4,2.47,1.31,3.69,2.18,6.49,2.21,1.53,0,2.06-1.68,2.22-3.2,0,0,.79-6,.81-7.38,0,0,4.14.25,11.31,4,1.89,1,3,2,5.14,2.07.47,0,.55-.51.94-.74.55-.32,1.06-.58,1.14-1.23,0,0,.25-2,.28-2.23,0,0-.59-12.5,2.18-20.5,1.5-4.35,4.81-9.4,7.31-13.26A133.1,133.1,0,0,0,81.42,44.5C82,43,82.73,41.41,83,40.6A1.32,1.32,0,0,0,81.68,39c-1.37,0-2.08.51-3.43.7,0,0-3.47.52-3.74.53l-6.28-.09a61.29,61.29,0,0,1-8.76-1.94c-.81-.29-3.23-.79-3.23-.79-.63-.15-1.2-.23-1.2-.23" transform="translate(0 0)"/><path class="cls-14" d="M29.4,44.64l-1.82,0c0,1.21-.15,7.27-.37,8.42-.68,3.66-1.22,9.15-2,11.58-1.18,3.5-3.58,10-4.57,12.12-.68,1.48-1.44,3-2.19,4.45C17.21,83.52,15,91.13,15,91.13a51.39,51.39,0,0,1,5.91-.44A33,33,0,0,1,28.11,92a53.57,53.57,0,0,1,6.08,2.7c3.08,1.59,4.87,2.5,7.78,4.21v-.62c.07-1.17-2.77-3.81-3.78-4.73a7.78,7.78,0,0,1-1.25-3,27.35,27.35,0,0,1,.1-7.26c-1.78-.91-2.78-1.32-4.51-2.33-.68-.38-2.84-1.14-2.83-1.39s1.42-3.11,1.88-4.65.83-2.71,1.35-4.19a61,61,0,0,0,1.58-11.91l.08-1c1.75,0,2.61,1.82,3,1.17,1.57-2.67.79-6.33,1-7.28l-.18-1.36c-1.15-.92-1.86-3-3.13-3.54a15.2,15.2,0,0,0-5.93-2.16" transform="translate(0 0)"/><path class="cls-15" d="M29.4,44.64l-1.82,0c0,1.21-.15,7.27-.37,8.42-.68,3.66-1.22,9.15-2,11.58-1.18,3.5-3.58,10-4.57,12.12-.68,1.48-1.44,3-2.19,4.45C17.21,83.52,15,91.13,15,91.13a51.39,51.39,0,0,1,5.91-.44A33,33,0,0,1,28.11,92a53.57,53.57,0,0,1,6.08,2.7c3.08,1.59,4.87,2.5,7.78,4.21v-.62c.07-1.17-2.77-3.81-3.78-4.73a7.78,7.78,0,0,1-1.25-3,27.35,27.35,0,0,1,.1-7.26c-1.78-.91-2.78-1.32-4.51-2.33-.68-.38-2.84-1.14-2.83-1.39s1.42-3.11,1.88-4.65.83-2.71,1.35-4.19a61,61,0,0,0,1.58-11.91l.08-1c1.75,0,2.61,1.82,3,1.17,1.57-2.67.79-6.33,1-7.28l-.18-1.36c-1.15-.92-1.86-3-3.13-3.54A15.2,15.2,0,0,0,29.4,44.64Z" transform="translate(0 0)"/><path class="cls-14" d="M56.7,39.05l-.9-.28c-2.2-.67-5.85,0-6.42.07a8.42,8.42,0,0,0-4.26,1.69,29.69,29.69,0,0,0-2.67,2.8c-.73.9-1.21,2.9-1.45,6.27l.1,2.46c5.2-1.48,10.71-.61,12.46-.59l-.28.5c-.59.64-3.43,14.15-4.07,23.54-.07.93-5.61-1.49-10,.45,0,.31.17,1.21-.09,1.36v2l0,2.48h-.25l0,2.24h-.25l0,2.24h-.25v1.12s8.44.49,10.38,1a43.76,43.76,0,0,1,8.51,3.42c1.11.58,3.93,1.82,3.93,1.82s-3.93-6.42-8.83-9.7c0,0,.56-1.59,1.07-1.35,3,1.38,7.79,7.63,9.2,9.63l.4-5.52L63.22,83s.3-5,.35-5.52a29,29,0,0,1,1.55-5.53c-.86.75-3.21,3-3.78,3l-1.23-1.42a33.21,33.21,0,0,0,5.14-4.94,87.27,87.27,0,0,0,4.83-7.65c1.5-2.91,5.33-8.66,6.24-10.42.59-1.14,2.14-4.44,2.14-4.44a42.66,42.66,0,0,1-8.26,6c-.87.32-1.56-1.63-1.56-1.63,1.47-.21,7.57-4.7,9.32-6.62a15.08,15.08,0,0,0,1.76-2.57l-2.37.47a32.78,32.78,0,0,1-10.83,0c-1-.19-8-1.64-9.82-2.66" transform="translate(0 0)"/><path class="cls-6" d="M83.82,52.71A1.59,1.59,0,0,1,84.3,54a2,2,0,0,1-.65,1.29l-6.18,6,7.58,7.77,6.16-6c.91-.89,1.75-.92,2.54-.12a1.35,1.35,0,0,1,.48,1.37,3.49,3.49,0,0,1-.94,1.27l-5.86,5.73q-2.84,2.76-5.34.2l-7-7.22a3.48,3.48,0,0,1-1-2.83,4.44,4.44,0,0,1,1.4-2.91l5.84-5.71a1.93,1.93,0,0,1,1.31-.61,1.58,1.58,0,0,1,1.24.51" transform="translate(0 0)"/><path class="cls-4" d="M277.7,97c.56,0,.59.64.56,1.21l-.09,2a76.27,76.27,0,0,0,1.35,19.07,102.5,102.5,0,0,0,4,14.15,60.07,60.07,0,0,0,4.09,7.63c1.24,2,3.5,5.21,3.78,5.54.77.92-3.09,1.16-4.44,1.66-3.55,1.34-6,1.43-9.21,3.51-.57.37-.3.1,0,.75,1.22,3.09,2.39,4.2,2.25,6.73l-.1,1.69c-.07,1.14-2.46,4.26-4.36,5a28.37,28.37,0,0,1-2.84.67,25.25,25.25,0,0,1-4,.09l-4.6,0a12.52,12.52,0,0,1-3.61-.55l-1.62-.39a21.71,21.71,0,0,0-4.5-.36s-4.6-.31-4.95-.3l-3.65.21c-1.8.11-4.38,1.32-4.76,1.36a1.43,1.43,0,0,1-1.52-1.27l-.17-1.1a10.25,10.25,0,0,1,.16-1.63c0-.27.42-2.35.42-2.35a7.57,7.57,0,0,0,.35-1.83c.05-.27.22-2.08.22-2.08,0-.28.33-7.79.33-7.79,0-.28-.21-10.69-.21-10.69,0-1.36-.18-3.8-.24-4.07,0,0-.56-3.24-1-4.59a48.82,48.82,0,0,0-1.8-4.9c-1.23-3-1.73-4.59-2.77-7.65a81.78,81.78,0,0,0-4.41-11.34,33.48,33.48,0,0,1-2.17-4.45c-.22-.64.29-.82,1-.84a2.37,2.37,0,0,1,1.35.34,32.38,32.38,0,0,0,3.15,1.49c3.09,1.4,4.95,2.06,8.14,3.21,3.48,1.25,4.81,1.7,8.46,2.77,1.39.41,3.53.76,5.17,1.11h.11l-.05-2.08c0-.28.21-2.61.21-2.61.08-1,.81-1.51,1.64-2.12a27.33,27.33,0,0,1,4.63-2.7c3.52-1.74,10.14-2.75,13.32-2.55Z" transform="translate(0 0)"/><path class="cls-12" d="M276.65,98.86c.1.21-.46,3.8-.46,3.8-.53,3.74.62,13.06,1.31,16.77.37,2,1.19,5.32,1.64,7.15a18.27,18.27,0,0,0,1,3.64c.61,1.35.66,2.22,1.23,3.51a63.2,63.2,0,0,0,4.06,7.84,45.3,45.3,0,0,0,3,4.36,11.38,11.38,0,0,1-2.75.76s-3.37.76-5.05,1.27c-1.07.32-1.71.77-2.76,1.14a6,6,0,0,0-1.84,1.13,25.72,25.72,0,0,0-1-2.84c-.93-1.73-2.16-2.27-2.21-4.28a2.78,2.78,0,0,1,.31-1.5c.65-.76.31-.4,1.2-.84a7.47,7.47,0,0,1,2.15-.79s-.7-1.34-1.55-3.08a30.73,30.73,0,0,1-1.44-4,39.92,39.92,0,0,1-1.41-5.86c-.13-.61-.84-7.09-.84-7.09a45,45,0,0,1-.53-6l-.82,0-1.29-3.36c-1.11-1.61-2.94-1.82-3.7-2.23-4-2.14-2.46-.89-6.57-2.84l-1.24-.92c2-2.75,9-5,10.05-5.23a39.89,39.89,0,0,1,7.44-.56Z" transform="translate(0 0)"/><path class="cls-13" d="M276.65,98.86c.1.21-.46,3.8-.46,3.8-.53,3.74.62,13.06,1.31,16.77.37,2,1.19,5.32,1.64,7.15a18.27,18.27,0,0,0,1,3.64c.61,1.35.66,2.22,1.23,3.51a63.2,63.2,0,0,0,4.06,7.84,45.3,45.3,0,0,0,3,4.36,11.38,11.38,0,0,1-2.75.76s-3.37.76-5.05,1.27c-1.07.32-1.71.77-2.76,1.14a6,6,0,0,0-1.84,1.13,25.72,25.72,0,0,0-1-2.84c-.93-1.73-2.16-2.27-2.21-4.28a2.78,2.78,0,0,1,.31-1.5c.65-.76.31-.4,1.2-.84a7.47,7.47,0,0,1,2.15-.79s-.7-1.34-1.55-3.08a30.73,30.73,0,0,1-1.44-4,39.92,39.92,0,0,1-1.41-5.86c-.13-.61-.84-7.09-.84-7.09a45,45,0,0,1-.53-6l-.82,0-1.29-3.36c-1.11-1.61-2.94-1.82-3.7-2.23-4-2.14-2.46-.89-6.57-2.84l-1.24-.92c2-2.75,9-5,10.05-5.23a39.89,39.89,0,0,1,7.44-.56Z" transform="translate(0 0)"/><path class="cls-14" d="M231.49,103.21a13.37,13.37,0,0,0,2,1.06c1,.47,2,.92,2.94,1.37a43.74,43.74,0,0,0,4.41,1.72c1.48.5,3,1,4.45,1.46,1.25.42,2.52.78,3.8,1.1,2.75.69,5.53,1.27,8.3,1.82,1.54.31,3.09.6,4.64.87s3.39.47,5.08.76l.83.17c.2,0,.23,0,.28.21s0,.25.06.38c.08.5.17,1,.24,1.5a22.33,22.33,0,0,1,.22,2.71,7.37,7.37,0,0,1-.24,2.34,2.41,2.41,0,0,1-1.61,1.5,10.6,10.6,0,0,1-3.71.49c-1.37,0-2.75.09-4.12.09-.71,0-1.42,0-2.13-.1-.34,0-.69-.11-1-.11,0,0-.1,0-.13,0h-.05c.08,1,.14,2.09.32,3.13.29,1.64.73,3.26,1.16,4.87s.83,3.05,1.3,4.56a22.18,22.18,0,0,1,.79,2.9c.14.82.25,1.64.35,2.46a47,47,0,0,1,.38,6c0,.8-.12,1.59-.16,2.39a.41.41,0,0,0,0,.19c0,.13.28.19.41.25l.81.34a13,13,0,0,0,3.81.8c1.13.08,2.27.09,3.41.07a14.14,14.14,0,0,0,1.84-.06c.52-.09,1-.28,1.57-.4a6.23,6.23,0,0,0,1.35-.42,2,2,0,0,0,.46-.29,41.13,41.13,0,0,1,2.27,4.05c.37.79.76,1.59,1.13,2.38a7,7,0,0,1,.7,2.23,4.85,4.85,0,0,1-1.3,3.89,7,7,0,0,1-3.17,2,44.06,44.06,0,0,1-6.37.55,30.2,30.2,0,0,1-5.8-.39c-.95-.16-1.87-.52-2.83-.67a40,40,0,0,0-4.59-.71c-.65-.06-1.31-.09-2-.09A52,52,0,0,0,244,163a4,4,0,0,0-.9.17,5.56,5.56,0,0,1,0-.58,2.89,2.89,0,0,1,.4-.9q.34-.65.75-1.26c.48-.69,1-1.32,1.55-2s.94-1.33,1.46-1.94c.39-.45-.1-.75.17-1.27a19.47,19.47,0,0,0,.89-3.34c0-.18-.32-.88-.55-.76s-.21.3-.27.4l-.27.41-1.08,1.62a12,12,0,0,1-1.86,2.54c-1,.9-1.08-1.11-1.11-1.73,0-1.18,0-2.37,0-3.55.06-2.39.09-4.78,0-7.17-.08-1.19-.26-2.36-.33-3.56,0-.11,0-.23,0-.34.41.59.61,1.33,1.07,1.89.21.26.44.5.66.74s.81.92,1,.87.44-.5.56-.63l.29-.32c.17-.18.26-.23.17-.49a16,16,0,0,0-1-2.18c-.42-.82-.83-1.65-1.22-2.48a33.7,33.7,0,0,1-1.82-4.75c-.65-2.17-1.24-4.39-2.09-6.5-.76-1.88-1.57-3.74-2.33-5.61a38.57,38.57,0,0,1-1.37-4c-.12-.44-.29-.87-.39-1.32a7.92,7.92,0,0,0-.29-1.26,1.51,1.51,0,0,0-.26-.46c1.62,2,3.12,4.06,4.9,5.91,1.1,1.14,2,2.42,3.19,3.49.62.55,1.26,1.09,1.92,1.61.33.27.48.46.91.4a5.84,5.84,0,0,0,2-.86,87.55,87.55,0,0,1-10.59-11.27c-.57-.71-1.1-1.45-1.68-2.16-.42-.5-.84-1-1.24-1.5-.88-1.17-1.64-2.44-2.46-3.66-.44-.65-.89-1.3-1.33-2" transform="translate(0 0)"/><path class="cls-4" d="M236.42,38.22c3.79-.74,9.42.37,12.36,3.08,1.29,1.18,2.39,4,3.21,7.86.27,1.24,1.93-2,5-3.18l3.22-1.21c1.18-.44,4.91-.83,4.93-.07,0,0,.2,5.39.24,8.17l.29,2.72.58,4.14c.4,2.91,2.54,8.17,3.39,11,1.4,4.6,4.6,9.75,6.14,13.59.84,2.1,1.28,3.86,2.06,6a11.2,11.2,0,0,1,.8,3.51c0,.52-6.62-.17-7.14-.16a54,54,0,0,0-7.37,1.14c-3.47,1-6,2.69-9.21,4.4-2.47,1.31-3.69,2.18-6.5,2.21-1.52,0-2.05-1.68-2.22-3.21,0,0-.78-6-.8-7.37,0,0-4.14.25-11.31,4-1.89,1-3,2-5.14,2.07-.47,0-.55-.51-.95-.74S227,95.6,226.89,95c0,0-.25-2-.28-2.24,0,0,.58-12.49-2.18-20.49-1.5-4.35-4.82-9.4-7.31-13.26A133.1,133.1,0,0,1,210,45.51c-.59-1.51-1.31-3.09-1.55-3.9A1.33,1.33,0,0,1,209.78,40c1.37,0,2.08.51,3.43.7,0,0,3.47.53,3.74.53l6.28-.09A61.6,61.6,0,0,0,232,39.24c.81-.29,3.23-.79,3.23-.79.63-.15,1.2-.23,1.2-.23" transform="translate(0 0)"/><path class="cls-14" d="M262.06,45.65l1.81,0c0,1.21.16,7.27.38,8.42.68,3.66,1.21,9.15,2,11.58,1.18,3.5,3.58,10,4.56,12.13.69,1.47,1.45,3,2.2,4.44,1.2,2.33,3.45,9.94,3.45,9.94a54,54,0,0,0-5.91-.44A33,33,0,0,0,263.35,93a53.57,53.57,0,0,0-6.08,2.7c-3.08,1.59-4.88,2.51-7.79,4.22v-.63c-.07-1.17,2.77-3.81,3.77-4.73a7.64,7.64,0,0,0,1.26-3,27.26,27.26,0,0,0-.1-7.25c1.78-.91,2.78-1.33,4.51-2.34.68-.38,2.83-1.14,2.83-1.39s-1.42-3.11-1.88-4.65-.83-2.7-1.35-4.19a61.54,61.54,0,0,1-1.59-11.91l-.07-1c-1.75,0-2.61,1.82-3,1.17-1.57-2.66-.79-6.33-1.05-7.28l.18-1.36c1.15-.92,1.86-3,3.13-3.54a15.2,15.2,0,0,1,5.93-2.16" transform="translate(0 0)"/><path class="cls-15" d="M262.06,45.65l1.81,0c0,1.21.16,7.27.38,8.42.68,3.66,1.21,9.15,2,11.58,1.18,3.5,3.58,10,4.56,12.13.69,1.47,1.45,3,2.2,4.44,1.2,2.33,3.45,9.94,3.45,9.94a54,54,0,0,0-5.91-.44A33,33,0,0,0,263.35,93a53.57,53.57,0,0,0-6.08,2.7c-3.08,1.59-4.88,2.51-7.79,4.22v-.63c-.07-1.17,2.77-3.81,3.77-4.73a7.64,7.64,0,0,0,1.26-3,27.26,27.26,0,0,0-.1-7.25c1.78-.91,2.78-1.33,4.51-2.34.68-.38,2.83-1.14,2.83-1.39s-1.42-3.11-1.88-4.65-.83-2.7-1.35-4.19a61.54,61.54,0,0,1-1.59-11.91l-.07-1c-1.75,0-2.61,1.82-3,1.17-1.57-2.66-.79-6.33-1.05-7.28l.18-1.36c1.15-.92,1.86-3,3.13-3.54A15.2,15.2,0,0,1,262.06,45.65Z" transform="translate(0 0)"/><path class="cls-14" d="M234.76,40.06l.9-.28c2.2-.67,5.85,0,6.42.08a8.35,8.35,0,0,1,4.26,1.68,29.69,29.69,0,0,1,2.67,2.8c.73.9,1.21,2.9,1.45,6.27l-.1,2.46c-5.21-1.48-10.71-.61-12.47-.59l.28.5c.6.64,3.43,14.15,4.08,23.54.06.93,5.61-1.49,10,.45,0,.31-.17,1.21.08,1.36v2l0,2.48h.25l0,2.24h.24l0,2.24h.25l0,1.12s-8.44.49-10.38,1a43.76,43.76,0,0,0-8.51,3.42c-1.11.58-3.93,1.83-3.93,1.83s3.93-6.43,8.83-9.71c0,0-.56-1.58-1.08-1.35-3,1.38-7.78,7.63-9.2,9.63l-.39-5.52-.3-3.73s-.29-5-.35-5.52a28.52,28.52,0,0,0-1.54-5.53c.85.75,3.2,3,3.78,3l1.22-1.42a33.21,33.21,0,0,1-5.13-4.94c-1.92-2.62-4.52-7-4.84-7.65-1.5-2.91-5.32-8.66-6.23-10.42C214.55,50.33,213,47,213,47a42.68,42.68,0,0,0,8.25,6c.88.32,1.57-1.63,1.57-1.63-1.47-.21-7.57-4.7-9.33-6.62a14.74,14.74,0,0,1-1.75-2.57l2.37.47a32.78,32.78,0,0,0,10.83,0c1-.19,8-1.64,9.82-2.66" transform="translate(0 0)"/><path class="cls-6" d="M199.42,46.19,206,51.06a2,2,0,0,1,.82,1.2,1.61,1.61,0,0,1-.31,1.31,1.58,1.58,0,0,1-1.14.66,2,2,0,0,1-1.39-.42l-2.71-2-7.39,10a1.52,1.52,0,0,1-1.15.67,2,2,0,0,1-1.36-.42,2.12,2.12,0,0,1-.86-1.21,1.55,1.55,0,0,1,.3-1.3l7.38-10-.2-.15-2.49-1.83a2,2,0,0,1-.81-1.2,1.54,1.54,0,0,1,.29-1.29,1.59,1.59,0,0,1,1.16-.68,1.94,1.94,0,0,1,1.38.42l6.62,4.88Z" transform="translate(0 0)"/><path class="cls-6" d="M207.5,75a1.55,1.55,0,0,1-1.25.47A2,2,0,0,1,205,74.8l-5.66-5.89a4.49,4.49,0,0,1-1.3-3,3.45,3.45,0,0,1,1.1-2.8l7.12-6.85a3.5,3.5,0,0,1,2.82-1A4.44,4.44,0,0,1,212,56.76l5.66,5.88a2,2,0,0,1,.62,1.32,1.74,1.74,0,0,1-1.78,1.71,2,2,0,0,1-1.3-.67l-6-6.23-2.66,2.56,6,6.23a1.94,1.94,0,0,1,.62,1.32,1.57,1.57,0,0,1-.52,1.22c-.8.77-1.64.69-2.52-.22l-6-6.23-2.64,2.54,6,6.25a2,2,0,0,1,.6,1.31A1.59,1.59,0,0,1,207.5,75" transform="translate(0 0)"/><path class="cls-4" d="M45.43,141.94a23.44,23.44,0,0,0,.78,15.34,4.25,4.25,0,0,0,2.47,2.59,5.92,5.92,0,0,0,3.16.27c3.73-.36,7.4-.09,11.11-.67a126.15,126.15,0,0,0-5.53-25.85c-2.11-6.49-11.08,5.52-12,8.32" transform="translate(0 0)"/><path class="cls-4" d="M240.23,132c.38,2.35.69,2.94,2.31,3.9,2.11,1.25,9.73-2.12,9.27.29-1.23,6.46-3.3,13.1-4.53,19.55a11.07,11.07,0,0,1-1.46,2.7c-1.26,2.16.07,1-2.43,1.08-2.09.05-16.83.59-17.33.26-.93-.62,3.84-27.85,4.05-28.95,1-5.29,7.32-5.82,8.74-3.45a15,15,0,0,1,1.38,4.62" transform="translate(0 0)"/><path class="cls-4" d="M45.64,137.46a38.93,38.93,0,0,0-4.26,12.89c-.83,5,.52,7.22,1.29,8.13,1.42,1.67,4.42,1.6,5.93,2.06s-1.1,1.38.47,1.44a3.85,3.85,0,0,0,2.16-.33,3.78,3.78,0,0,0,1.34-2.07A73.54,73.54,0,0,0,56,146.12c.68-4.37,1.42-9.43.77-13.83-5.25-1-8.2.3-11.1,5.17" transform="translate(0 0)"/><polygon class="cls-4" points="238.06 144.72 241.04 145 244.03 132.24 253.83 131.98 247 158.86 243.32 161.89 240.59 161.12 236.89 160.86 235.72 156.09 238.06 144.72"/><path class="cls-6" d="M95,154.08l-1.24-6.56L92,154.08H88l2.67-9.8H98l.73,3.68,2.59-3.68h7.19L105,157.41h-4.06l2.62-9.66L99,154.08Zm-2.89-15.36H97l.83,4.24H91Zm13.13,0h4.78L108.91,143H102.3Z" transform="translate(0 0)"/><path class="cls-6" d="M109.54,153.33l2.53-9.28h3.85l-2.53,9.28Zm15.71-14.55a1.24,1.24,0,0,1,.93.38,2.4,2.4,0,0,1,.57.94,4.57,4.57,0,0,1,.23,1.3,6.47,6.47,0,0,1-.08,1.4H112.42l1.08-4Zm0,9.22a5.56,5.56,0,0,1-1.08,1.26,5.1,5.1,0,0,1-1.34.81,6.9,6.9,0,0,1-1.51.43H115l1.13-4.19h5.6a.37.37,0,0,0,.22-.13l.29-.32c.1-.13.18-.25.25-.36a1.78,1.78,0,0,0,.14-.27l.33-1.18h3.62l-.59,2.17a6.45,6.45,0,0,1-.76,1.78" transform="translate(0 0)"/><path class="cls-6" d="M131.63,148.09l-.33,1.23H141l-1.1,4H126.15l2.53-9.28h10.76l-1.1,4Zm-2.57-5.29a8.88,8.88,0,0,1,.72-1.45,7.5,7.5,0,0,1,1-1.29,4.81,4.81,0,0,1,1.13-.92,2.31,2.31,0,0,1,1.19-.36h10.78l-1.08,4Z" transform="translate(0 0)"/><path class="cls-6" d="M144.08,142.8l1.09-4h13.74l-1.09,4Zm2.92,1.25h4l-1.3,4.74a2.07,2.07,0,0,0,0,.35c0,.12.07.17.21.17h3.36l-1.11,4h-4.75a1.47,1.47,0,0,1-1.11-.44,2.61,2.61,0,0,1-.62-1.11,5,5,0,0,1-.18-1.49,6.73,6.73,0,0,1,.23-1.61Z" transform="translate(0 0)"/><path class="cls-6" d="M162.23,148.81l1.43-5.27h3.83l-1.43,5.27h3.84l-1.1,4H157.28l1.1-4Zm-2.07-6.52,1.08-4h11.52l-1.08,4Z" transform="translate(0 0)"/><path class="cls-6" d="M173.5,142.8l1.09-4h13.74l-1.09,4Zm2.91,1.25h4l-1.3,4.74a2.07,2.07,0,0,0,0,.35c0,.12.07.17.21.17h3.36l-1.1,4h-4.76a1.43,1.43,0,0,1-1.1-.44,2.51,2.51,0,0,1-.62-1.11,4.64,4.64,0,0,1-.19-1.49,6.73,6.73,0,0,1,.23-1.61Z" transform="translate(0 0)"/><path class="cls-6" d="M191.72,149.58l1.51-5.56h4l-1.51,5.56h4.05l-1.17,4.24H186.49l1.16-4.24Zm-2.2-6.87,1.15-4.24h12.16l-1.15,4.24Z" transform="translate(0 0)"/><path class="cls-6" d="M203.79,144.62h5l-1.61,5.87a2,2,0,0,0,0,.4c0,.11.09.16.28.16h7.14a.33.33,0,0,0,.33-.21,3.66,3.66,0,0,0,.15-.43l1.59-5.79h5L220,150.28a10,10,0,0,1-.8,2A10.53,10.53,0,0,1,218,154.1a7.13,7.13,0,0,1-1.53,1.35,2.9,2.9,0,0,1-1.61.54H204.31a1.76,1.76,0,0,1-1.34-.54,3.22,3.22,0,0,1-.76-1.36,6,6,0,0,1-.24-1.84,7.26,7.26,0,0,1,.27-2Zm1.33-3.3a9.2,9.2,0,0,1,1.19-1.58,6.27,6.27,0,0,1,1.39-1.13,2.92,2.92,0,0,1,1.46-.43h10.51a1.84,1.84,0,0,1,1.23.43,3,3,0,0,1,.78,1.14,5.47,5.47,0,0,1,.33,1.58,8,8,0,0,1-.08,1.76H204.25a11.13,11.13,0,0,1,.87-1.77" transform="translate(0 0)"/><path class="cls-6" d="M69.84,144.87h5l-1.6,5.88a1.46,1.46,0,0,0-.07.4c0,.1.1.16.29.16h7.14a.32.32,0,0,0,.33-.22,3.12,3.12,0,0,0,.15-.43l1.59-5.79h5l-1.55,5.66a9.78,9.78,0,0,1-.8,2A9,9,0,0,1,84,154.35a7.06,7.06,0,0,1-1.52,1.35,2.93,2.93,0,0,1-1.62.54H70.36A1.76,1.76,0,0,1,69,155.7a3.33,3.33,0,0,1-.76-1.36A5.94,5.94,0,0,1,68,152.5a7.26,7.26,0,0,1,.27-2Zm1.33-3.3A10.2,10.2,0,0,1,72.36,140a6.22,6.22,0,0,1,1.39-1.12,2.82,2.82,0,0,1,1.46-.43H85.72a1.79,1.79,0,0,1,1.23.43,2.64,2.64,0,0,1,.78,1.14,5.47,5.47,0,0,1,.33,1.58,7.93,7.93,0,0,1-.08,1.75H70.3a12.06,12.06,0,0,1,.87-1.77" transform="translate(0 0)"/><path class="cls-6" d="M50.19,150.91c0,.18.09.27.34.27H65.87l-1.8,6.57H46.44a2.37,2.37,0,0,1-1.79-.72,4.39,4.39,0,0,1-1-1.81,8.15,8.15,0,0,1-.32-2.44,10.64,10.64,0,0,1,.36-2.64l2.07-7.57h6.65l-2,7.5q-.11.57-.15.84m18.59-10.39H46.36a16.25,16.25,0,0,1,1.17-2.37A13.24,13.24,0,0,1,49.12,136,8.12,8.12,0,0,1,51,134.53a3.83,3.83,0,0,1,2-.57H70.56Z" transform="translate(0 0)"/><path class="cls-6" d="M235.81,157.77l-5-13.92L227,157.77h-6.27l4.14-15.18h14.83l1.94,5.31,1.45-5.31h6.28l-4.15,15.18ZM227.2,134h9.39l2.37,6.57H225.42Zm22.71,6.57h-6.27l1.77-6.57h6.27Z" transform="translate(0 0)"/></svg>